M48
METRIC,TZ
T1C0.200
T2C0.400
T3C0.600
T4C0.650
T5C1.000
T6C1.100
T7C1.400
T8C2.100
%
G90
G05
T1
X135608Y-56546
X135608Y-58046
X136358Y-55796
X136358Y-57296
X136358Y-58796
X137108Y-56546
X137108Y-58046
X137858Y-55796
X137858Y-57296
X137858Y-58796
X138608Y-56546
X138608Y-58046
T2
X71120Y-141224
X71628Y-133096
X72644Y-101600
X73152Y-66040
X73152Y-114300
X73568Y-136860
X74168Y-120396
X75184Y-76708
X75600Y-130354
X75650Y-133341
X78232Y-94488
X78740Y-115824
X79206Y-132325
X79756Y-55372
X79756Y-139192
X79756Y-146812
X80492Y-129500
X80492Y-131370
X81000Y-125170
X83032Y-125236
X83583Y-133284
X83820Y-61468
X84328Y-145288
X85064Y-125236
X85344Y-140208
X88137Y-133203
X88392Y-140208
X89366Y-134865
X89408Y-122428
X89916Y-136652
X90187Y-142428
X91414Y-131878
X92456Y-134112
X93980Y-66548
X93980Y-84328
X94251Y-129220
X94488Y-124460
X96012Y-148844
X96173Y-145404
X96549Y-137752
X97048Y-145984
X97536Y-76708
X97536Y-94488
X97536Y-148844
X98044Y-128524
X98098Y-145984
X98548Y-137752
X98552Y-132588
X99060Y-148844
X99839Y-145476
X100206Y-138361
X100584Y-148844
X101121Y-137752
X102108Y-119380
X103382Y-61702
X104648Y-94488
X104906Y-63734
X105156Y-145796
X106430Y-63734
X107446Y-85070
X108204Y-118872
X108204Y-136144
X108970Y-83038
X108970Y-101834
X109220Y-146812
X109986Y-83038
X109986Y-99294
X110041Y-109001
X111002Y-78466
X111337Y-75289
X111760Y-119888
X112018Y-76434
X112252Y-74402
X112526Y-73386
X112676Y-71346
X113034Y-72370
X113047Y-134808
X113284Y-55880
X113284Y-62992
X113357Y-70442
X113542Y-118211
X115316Y-148336
X115574Y-105699
X116597Y-109924
X117098Y-90150
X117470Y-105835
X118114Y-101834
X119380Y-91948
X119380Y-148336
X119638Y-108946
X119638Y-114843
X119888Y-99060
X119888Y-133096
X120788Y-61194
X120904Y-123952
X122178Y-60178
X122686Y-58145
X122936Y-87884
X123444Y-73152
X123444Y-96520
X123702Y-53574
X123843Y-51616
X124078Y-78334
X124210Y-79482
X124210Y-83038
X124210Y-82022
X124718Y-58146
X124968Y-148336
X125476Y-121412
X125734Y-134854
X127000Y-69596
X127508Y-115824
X127766Y-67273
X127766Y-68323
X127766Y-122342
X128789Y-126567
X129540Y-104648
X129798Y-122342
X130814Y-74402
X131064Y-142240
X131830Y-131486
X132080Y-58928
X132588Y-102108
X132588Y-128016
X132987Y-67948
X133096Y-54864
X135128Y-110744
X136016Y-74016
X136144Y-67056
X136652Y-53340
X137926Y-73386
X138434Y-83546
X138434Y-87102
X138942Y-74402
X139192Y-67564
X140466Y-62210
X140466Y-73386
X141224Y-125984
X141732Y-91948
X141732Y-145288
X141990Y-62210
X142240Y-119380
X142498Y-82022
X142639Y-67948
X143514Y-133330
X143764Y-136652
X144022Y-60686
X144163Y-67948
X145546Y-52050
X145687Y-55390
X145687Y-57280
X145687Y-67948
X149459Y-68456
X150626Y-58146
X150876Y-99060
X151384Y-141224
X153166Y-72370
X153416Y-106172
X154432Y-137160
X156464Y-129540
X157302Y-72298
X159004Y-107696
X159004Y-122428
X162560Y-73660
X164084Y-57404
X165358Y-55606
X165608Y-111760
X167640Y-83312
X168656Y-106172
X168656Y-135128
X168914Y-55606
X169164Y-128524
X170180Y-57404
X170688Y-113792
X170688Y-126492
X172470Y-55606
X172639Y-101326
X172639Y-106406
X172720Y-131064
X172720Y-138684
X173486Y-110470
X173486Y-123678
X173527Y-109412
X176026Y-55606
X176073Y-103744
X176195Y-91674
X176970Y-109454
X177002Y-110503
X178308Y-86868
X178816Y-107696
X178816Y-146304
X179009Y-93706
X179074Y-54590
X179131Y-102454
X179313Y-131298
X179324Y-122428
X179832Y-132080
X180090Y-149078
X180259Y-90150
X181275Y-117074
X181275Y-118224
X184323Y-90150
X184323Y-95230
X184831Y-118090
X184912Y-59436
X185420Y-101092
X185847Y-90658
X185928Y-74676
X186436Y-81280
X186694Y-140950
X187371Y-120122
X187960Y-105664
X188218Y-109454
X188218Y-110470
X188557Y-126630
X189992Y-81280
X190250Y-132822
X191008Y-107188
X191097Y-126630
X192006Y-138353
X192024Y-100584
X192282Y-118090
X192532Y-53848
X193975Y-89642
X194991Y-91166
X195265Y-117009
X195499Y-86594
X195758Y-100564
X196515Y-94214
X197023Y-110470
X197023Y-111486
X197870Y-89642
X198120Y-74676
X198628Y-122936
X199644Y-59944
X199644Y-113284
X199644Y-128524
X199902Y-118867
X200152Y-66548
X201168Y-103124
X201168Y-124968
X201898Y-118867
X201934Y-89642
X202184Y-143256
X202442Y-133330
X203458Y-55759
X203966Y-138410
X204216Y-128016
X205095Y-106284
X205490Y-78974
X205725Y-107422
X206248Y-72136
X206506Y-77450
X207014Y-55759
X207522Y-75926
X208030Y-132822
X208538Y-74910
X209296Y-58420
X209296Y-142748
X209495Y-73386
X209804Y-67056
X210570Y-55759
X210570Y-72370
X212344Y-94488
X212344Y-120904
X214126Y-55759
X215392Y-118364
X215392Y-135128
X216916Y-86868
X217424Y-79756
X217424Y-121412
X217424Y-147828
X217932Y-60960
X217932Y-113792
X219964Y-140208
X221488Y-89408
X226568Y-139700
X227076Y-86868
T4
X152658Y-52558
X152658Y-53828
X153928Y-52558
X153928Y-53828
X155198Y-52558
X155198Y-53828
X156468Y-52558
X156468Y-53828
X157738Y-52558
X157738Y-53828
X193975Y-80361
X193975Y-81631
X195245Y-80361
X195245Y-81631
X196515Y-80361
X196515Y-81631
X197785Y-80361
X197785Y-81631
X199055Y-80361
X199055Y-81631
T5
X90174Y-72370
X90174Y-74910
X90174Y-77450
X90174Y-79990
X90174Y-82530
X90174Y-85070
X90174Y-87610
X90174Y-90150
X90174Y-99294
X90174Y-101834
X90174Y-104374
X90174Y-106914
X90174Y-109454
X90174Y-111994
X90174Y-114534
X90174Y-117074
X90682Y-54345
X90682Y-56885
X93222Y-54345
X93222Y-56885
X95762Y-54345
X95762Y-56885
X97794Y-90150
X97794Y-117074
X98302Y-54345
X98302Y-56885
X100334Y-90150
X100334Y-117074
X100842Y-54345
X100842Y-56885
X102874Y-72370
X102874Y-74910
X102874Y-77450
X102874Y-79990
X102874Y-82530
X102874Y-85070
X102874Y-87610
X102874Y-90150
X102874Y-99294
X102874Y-101834
X102874Y-104374
X102874Y-106914
X102874Y-109454
X102874Y-111994
X102874Y-114534
X102874Y-117074
X159262Y-144242
X159262Y-146782
X161802Y-144242
X161802Y-146782
X164342Y-144242
X164342Y-146782
X166882Y-144242
X166882Y-146782
X169422Y-144242
X169422Y-146782
X189234Y-149078
X191774Y-149078
X194314Y-149078
X196854Y-149078
X199394Y-149078
X222762Y-121138
X222762Y-123678
X222762Y-126218
X222762Y-128758
X222762Y-131298
X223006Y-67290
X223006Y-69830
X223006Y-72370
X223006Y-74910
X223006Y-77450
X225302Y-121138
X225302Y-123678
X225302Y-126218
X225302Y-128758
X225302Y-131298
X225546Y-67290
X225546Y-69830
X225546Y-72370
X225546Y-74910
X225546Y-77450
T6
X102953Y-128966
X105493Y-128966
X108033Y-128966
X113621Y-128966
X116161Y-128966
X118701Y-128966
T7
X79173Y-96788
X79173Y-104408
X79173Y-112028
X79173Y-119648
X79206Y-65292
X79206Y-72912
X79206Y-80532
X79206Y-88152
X111510Y-140696
X119130Y-140696
X126750Y-140696
X134370Y-140696
T8
X128830Y-79990
X134830Y-79990
T3
G00X93753Y-143469
M15
G01X93753Y-144569
M16
G05
G00X93753Y-147799
M15
G01X93753Y-148599
M16
G05
G00X102393Y-143469
M15
G01X102393Y-144569
M16
G05
G00X102393Y-147799
M15
G01X102393Y-148599
M16
G05
M30
