%TF.GenerationSoftware,KiCad,Pcbnew,8.0.2*%
%TF.CreationDate,2024-05-15T16:38:59+02:00*%
%TF.ProjectId,Automatischer-Kabelschneider,4175746f-6d61-4746-9973-636865722d4b,1.0*%
%TF.SameCoordinates,Original*%
%TF.FileFunction,Soldermask,Bot*%
%TF.FilePolarity,Negative*%
%FSLAX46Y46*%
G04 Gerber Fmt 4.6, Leading zero omitted, Abs format (unit mm)*
G04 Created by KiCad (PCBNEW 8.0.2) date 2024-05-15 16:38:59*
%MOMM*%
%LPD*%
G01*
G04 APERTURE LIST*
G04 Aperture macros list*
%AMRoundRect*
0 Rectangle with rounded corners*
0 $1 Rounding radius*
0 $2 $3 $4 $5 $6 $7 $8 $9 X,Y pos of 4 corners*
0 Add a 4 corners polygon primitive as box body*
4,1,4,$2,$3,$4,$5,$6,$7,$8,$9,$2,$3,0*
0 Add four circle primitives for the rounded corners*
1,1,$1+$1,$2,$3*
1,1,$1+$1,$4,$5*
1,1,$1+$1,$6,$7*
1,1,$1+$1,$8,$9*
0 Add four rect primitives between the rounded corners*
20,1,$1+$1,$2,$3,$4,$5,0*
20,1,$1+$1,$4,$5,$6,$7,0*
20,1,$1+$1,$6,$7,$8,$9,0*
20,1,$1+$1,$8,$9,$2,$3,0*%
G04 Aperture macros list end*
%ADD10R,1.905000X2.000000*%
%ADD11O,1.905000X2.000000*%
%ADD12C,3.500000*%
%ADD13RoundRect,0.249999X-1.300001X-1.300001X1.300001X-1.300001X1.300001X1.300001X-1.300001X1.300001X0*%
%ADD14C,3.100000*%
%ADD15RoundRect,0.102000X-0.754000X-0.754000X0.754000X-0.754000X0.754000X0.754000X-0.754000X0.754000X0*%
%ADD16C,1.712000*%
%ADD17RoundRect,0.250000X0.600000X-0.600000X0.600000X0.600000X-0.600000X0.600000X-0.600000X-0.600000X0*%
%ADD18C,1.700000*%
%ADD19C,3.200000*%
%ADD20O,1.000000X2.100000*%
%ADD21O,1.000000X1.800000*%
%ADD22C,0.600000*%
%ADD23RoundRect,0.250000X-0.600000X0.600000X-0.600000X-0.600000X0.600000X-0.600000X0.600000X0.600000X0*%
%ADD24R,1.000000X1.000000*%
%ADD25O,1.000000X1.000000*%
%ADD26RoundRect,0.250001X-1.549999X0.799999X-1.549999X-0.799999X1.549999X-0.799999X1.549999X0.799999X0*%
%ADD27O,3.600000X2.100000*%
%ADD28R,1.700000X1.700000*%
%ADD29O,1.700000X1.700000*%
%ADD30RoundRect,0.250000X0.600000X0.600000X-0.600000X0.600000X-0.600000X-0.600000X0.600000X-0.600000X0*%
%ADD31RoundRect,0.250001X-0.799999X-1.549999X0.799999X-1.549999X0.799999X1.549999X-0.799999X1.549999X0*%
%ADD32O,2.100000X3.600000*%
%ADD33C,1.000000*%
G04 APERTURE END LIST*
D10*
%TO.C,Q2*%
X113620909Y-128966453D03*
D11*
X116160909Y-128966453D03*
X118700909Y-128966453D03*
%TD*%
D12*
%TO.C,J4*%
X128829534Y-97989534D03*
X134829534Y-97989534D03*
D13*
X128829534Y-79989534D03*
D14*
X134829534Y-79989534D03*
%TD*%
D15*
%TO.C,U8*%
X90173534Y-99293534D03*
D16*
X90173534Y-101833534D03*
X90173534Y-104373534D03*
X90173534Y-106913534D03*
X90173534Y-109453534D03*
X90173534Y-111993534D03*
X90173534Y-114533534D03*
X90173534Y-117073534D03*
X102873534Y-99293534D03*
X102873534Y-101833534D03*
X102873534Y-104373534D03*
X102873534Y-106913534D03*
X102873534Y-109453534D03*
X102873534Y-111993534D03*
X102873534Y-114533534D03*
X102873534Y-117073534D03*
X97793534Y-117073534D03*
X100333534Y-117073534D03*
%TD*%
D17*
%TO.C,J9*%
X159261534Y-146782034D03*
D18*
X159261534Y-144242034D03*
X161801534Y-146782034D03*
X161801534Y-144242034D03*
X164341534Y-146782034D03*
X164341534Y-144242034D03*
X166881534Y-146782034D03*
X166881534Y-144242034D03*
X169421534Y-146782034D03*
X169421534Y-144242034D03*
%TD*%
D10*
%TO.C,Q1*%
X102952909Y-128966453D03*
D11*
X105492909Y-128966453D03*
X108032909Y-128966453D03*
%TD*%
D19*
%TO.C,H2*%
X224108000Y-55796000D03*
%TD*%
D20*
%TO.C,J1*%
X93752909Y-144019453D03*
D21*
X93752909Y-148199453D03*
D20*
X102392909Y-144019453D03*
D21*
X102392909Y-148199453D03*
%TD*%
D22*
%TO.C,U7*%
X135608000Y-56546000D03*
X135608000Y-58046000D03*
X136358000Y-55796000D03*
X136358000Y-57296000D03*
X136358000Y-58796000D03*
X137108000Y-56546000D03*
X137108000Y-58046000D03*
X137858000Y-55796000D03*
X137858000Y-57296000D03*
X137858000Y-58796000D03*
X138608000Y-56546000D03*
X138608000Y-58046000D03*
%TD*%
D23*
%TO.C,J5*%
X100841534Y-54345034D03*
D18*
X100841534Y-56885034D03*
X98301534Y-54345034D03*
X98301534Y-56885034D03*
X95761534Y-54345034D03*
X95761534Y-56885034D03*
X93221534Y-54345034D03*
X93221534Y-56885034D03*
X90681534Y-54345034D03*
X90681534Y-56885034D03*
%TD*%
D19*
%TO.C,H3*%
X74108000Y-145796000D03*
%TD*%
D24*
%TO.C,J7*%
X157737534Y-52557534D03*
D25*
X157737534Y-53827534D03*
X156467534Y-52557534D03*
X156467534Y-53827534D03*
X155197534Y-52557534D03*
X155197534Y-53827534D03*
X153927534Y-52557534D03*
X153927534Y-53827534D03*
X152657534Y-52557534D03*
X152657534Y-53827534D03*
%TD*%
D24*
%TO.C,J11*%
X193975034Y-81630534D03*
D25*
X193975034Y-80360534D03*
X195245034Y-81630534D03*
X195245034Y-80360534D03*
X196515034Y-81630534D03*
X196515034Y-80360534D03*
X197785034Y-81630534D03*
X197785034Y-80360534D03*
X199055034Y-81630534D03*
X199055034Y-80360534D03*
%TD*%
D26*
%TO.C,J3*%
X79206000Y-65292000D03*
D27*
X79206000Y-72912000D03*
X79206000Y-80532000D03*
X79206000Y-88152000D03*
%TD*%
D28*
%TO.C,J12*%
X189233534Y-149077534D03*
D29*
X191773534Y-149077534D03*
X194313534Y-149077534D03*
X196853534Y-149077534D03*
X199393534Y-149077534D03*
%TD*%
D15*
%TO.C,U6*%
X90173534Y-72369534D03*
D16*
X90173534Y-74909534D03*
X90173534Y-77449534D03*
X90173534Y-79989534D03*
X90173534Y-82529534D03*
X90173534Y-85069534D03*
X90173534Y-87609534D03*
X90173534Y-90149534D03*
X102873534Y-72369534D03*
X102873534Y-74909534D03*
X102873534Y-77449534D03*
X102873534Y-79989534D03*
X102873534Y-82529534D03*
X102873534Y-85069534D03*
X102873534Y-87609534D03*
X102873534Y-90149534D03*
X97793534Y-90149534D03*
X100333534Y-90149534D03*
%TD*%
D26*
%TO.C,J6*%
X79173500Y-96788000D03*
D27*
X79173500Y-104408000D03*
X79173500Y-112028000D03*
X79173500Y-119648000D03*
%TD*%
D19*
%TO.C,H4*%
X224108000Y-145796000D03*
%TD*%
%TO.C,H1*%
X74108000Y-55796000D03*
%TD*%
D30*
%TO.C,J10*%
X225301534Y-131297534D03*
D18*
X222761534Y-131297534D03*
X225301534Y-128757534D03*
X222761534Y-128757534D03*
X225301534Y-126217534D03*
X222761534Y-126217534D03*
X225301534Y-123677534D03*
X222761534Y-123677534D03*
X225301534Y-121137534D03*
X222761534Y-121137534D03*
%TD*%
D31*
%TO.C,J2*%
X111509534Y-140695534D03*
D32*
X119129534Y-140695534D03*
X126749534Y-140695534D03*
X134369534Y-140695534D03*
%TD*%
D30*
%TO.C,J8*%
X225546034Y-77449534D03*
D18*
X223006034Y-77449534D03*
X225546034Y-74909534D03*
X223006034Y-74909534D03*
X225546034Y-72369534D03*
X223006034Y-72369534D03*
X225546034Y-69829534D03*
X223006034Y-69829534D03*
X225546034Y-67289534D03*
X223006034Y-67289534D03*
%TD*%
D33*
%TO.C,TP12*%
X144163000Y-69472000D03*
%TD*%
%TO.C,TP9*%
X145687000Y-70996000D03*
%TD*%
%TO.C,TP11*%
X142639000Y-70996000D03*
%TD*%
%TO.C,TP10*%
X132479000Y-69472000D03*
%TD*%
%TO.C,TP8*%
X147211000Y-57280000D03*
%TD*%
%TO.C,TP7*%
X147211000Y-55248000D03*
%TD*%
M02*
