M48
; DRILL file {KiCad 8.0.2} date 2025-04-15T08:32:20+0200
; FORMAT={-:-/ absolute / metric / decimal}
; #@! TF.CreationDate,2025-04-15T08:32:20+02:00
; #@! TF.GenerationSoftware,Kicad,Pcbnew,8.0.2
; #@! TF.FileFunction,MixedPlating,1,2
FMAT,2
METRIC
; #@! TA.AperFunction,Plated,PTH,ComponentDrill
T1C0.200
; #@! TA.AperFunction,Plated,PTH,ViaDrill
T2C0.300
; #@! TA.AperFunction,Plated,PTH,ComponentDrill
T3C1.000
; #@! TA.AperFunction,Plated,PTH,ComponentDrill
T4C1.200
; #@! TA.AperFunction,NonPlated,NPTH,ComponentDrill
T5C3.200
%
G90
G05
T1
X165.786Y-75.71
X165.786Y-77.21
X166.536Y-74.96
X166.536Y-76.46
X166.536Y-77.96
X167.286Y-75.71
X167.286Y-77.21
X168.036Y-74.96
X168.036Y-76.46
X168.036Y-77.96
X168.786Y-75.71
X168.786Y-77.21
T2
X97.0Y-91.0
X97.0Y-115.0
X100.0Y-101.0
X101.0Y-122.0
X103.574Y-69.35
X103.574Y-70.366
X103.574Y-71.89
X103.574Y-72.906
X103.574Y-74.43
X103.574Y-75.446
X103.574Y-76.97
X103.574Y-77.986
X103.574Y-79.51
X103.574Y-80.526
X109.162Y-124.722
X113.0Y-137.0
X113.226Y-124.722
X118.0Y-112.0
X124.0Y-137.0
X124.402Y-124.214
X128.441Y-83.801
X131.101Y-88.358
X131.514Y-124.722
X132.0Y-93.0
X133.0Y-137.0
X135.0Y-70.0
X135.0Y-79.0
X135.578Y-124.722
X137.16Y-83.312
X138.646Y-65.87
X140.646Y-67.87
X141.0Y-112.0
X142.0Y-74.0
X142.24Y-86.36
X142.646Y-69.87
X144.0Y-137.0
X144.646Y-70.87
X146.0Y-81.0
X146.304Y-86.868
X146.646Y-70.87
X147.262Y-84.082
X147.262Y-124.214
X148.646Y-70.87
X150.646Y-70.87
X151.834Y-83.574
X152.596Y-70.94
X153.866Y-91.702
X153.866Y-82.05
X153.866Y-94.242
X154.882Y-90.686
X155.0Y-89.0
X155.136Y-103.96
X155.39Y-78.494
X156.0Y-82.0
X156.406Y-92.718
X157.422Y-89.67
X157.447Y-105.86
X158.0Y-126.0
X158.438Y-77.46
X158.438Y-78.73
X158.496Y-73.66
X159.0Y-100.0
X159.2Y-107.704
X160.0Y-111.0
X161.214Y-73.65
X161.646Y-70.87
X163.646Y-70.87
X164.0Y-85.0
X164.0Y-121.0
X164.201Y-87.305
X164.534Y-104.91
X164.534Y-117.61
X165.471Y-87.13
X165.646Y-70.87
X166.741Y-87.13
X167.646Y-70.87
X168.0Y-91.0
X168.011Y-87.13
X168.09Y-103.894
X168.09Y-105.926
X169.281Y-87.305
X169.649Y-70.834
X170.551Y-90.178
X171.646Y-70.87
X172.0Y-134.0
X172.154Y-118.626
X172.154Y-92.718
X172.662Y-86.622
X173.0Y-78.0
X173.228Y-112.268
X173.646Y-70.87
X174.186Y-86.622
X175.646Y-70.87
X178.816Y-92.964
X179.266Y-72.38
X179.266Y-73.65
X179.646Y-70.87
X180.282Y-90.686
X180.848Y-97.028
X181.0Y-81.0
X181.646Y-70.87
X181.806Y-76.19
X182.0Y-73.0
X182.314Y-74.938
X183.0Y-127.0
X183.33Y-88.4
X183.388Y-96.52
X183.646Y-70.87
X185.646Y-70.87
X187.646Y-70.87
X189.0Y-85.0
X189.646Y-70.87
X189.896Y-82.05
X189.896Y-90.305
X189.896Y-98.56
X190.0Y-96.0
X191.0Y-78.0
X191.0Y-110.0
T3
X109.756Y-108.52
X109.756Y-121.22
X112.296Y-108.52
X112.296Y-121.22
X114.836Y-108.52
X114.836Y-121.22
X117.376Y-108.52
X117.376Y-121.22
X119.916Y-108.52
X119.916Y-121.22
X122.456Y-108.52
X122.456Y-121.22
X124.996Y-108.52
X124.996Y-121.22
X127.536Y-108.52
X127.536Y-111.06
X127.536Y-113.6
X127.536Y-121.22
X132.256Y-108.52
X132.256Y-121.22
X134.796Y-108.52
X134.796Y-121.22
X137.336Y-108.52
X137.336Y-121.22
X139.876Y-108.52
X139.876Y-121.22
X142.416Y-108.52
X142.416Y-121.22
X144.956Y-108.52
X144.956Y-121.22
X147.496Y-108.52
X147.496Y-121.22
X150.036Y-108.52
X150.036Y-111.06
X150.036Y-113.6
X150.036Y-121.22
X167.059Y-94.491
X167.059Y-97.031
X169.599Y-94.491
X169.599Y-97.031
X172.139Y-94.491
X172.139Y-97.031
X186.371Y-104.87
X186.371Y-107.41
X186.371Y-112.345
X186.371Y-114.885
X186.371Y-117.425
X186.371Y-122.345
X186.371Y-124.885
X186.371Y-127.425
X188.911Y-104.87
X188.911Y-107.41
X188.911Y-112.345
X188.911Y-114.885
X188.911Y-117.425
X188.911Y-122.345
X188.911Y-124.885
X188.911Y-127.425
T4
X112.646Y-130.37
X116.456Y-130.37
X120.266Y-130.37
X124.076Y-130.37
X132.646Y-130.37
X136.456Y-130.37
X140.266Y-130.37
X144.076Y-130.37
T5
X97.646Y-68.62
X97.646Y-133.62
X187.646Y-74.87
X187.646Y-133.62
M30
