M48
METRIC,TZ
T1C0.200
T2C0.300
T3C1.000
T4C1.200
%
G90
G05
T1
X165786Y-75710
X165786Y-77210
X166536Y-74960
X166536Y-76460
X166536Y-77960
X167286Y-75710
X167286Y-77210
X168036Y-74960
X168036Y-76460
X168036Y-77960
X168786Y-75710
X168786Y-77210
T2
X97000Y-91000
X97000Y-115000
X100000Y-101000
X101000Y-122000
X103574Y-69350
X103574Y-70366
X103574Y-71890
X103574Y-72906
X103574Y-74430
X103574Y-75446
X103574Y-76970
X103574Y-77986
X103574Y-79510
X103574Y-80526
X109162Y-124722
X113000Y-137000
X113226Y-124722
X118000Y-112000
X124000Y-137000
X124402Y-124214
X128441Y-83801
X131101Y-88358
X131514Y-124722
X132000Y-93000
X133000Y-137000
X135000Y-70000
X135000Y-79000
X135578Y-124722
X137160Y-83312
X138646Y-65870
X140646Y-67870
X141000Y-112000
X142000Y-74000
X142240Y-86360
X142646Y-69870
X144000Y-137000
X144646Y-70870
X146000Y-81000
X146304Y-86868
X146646Y-70870
X147262Y-84082
X147262Y-124214
X148646Y-70870
X150646Y-70870
X151834Y-83574
X152596Y-70940
X153866Y-91702
X153866Y-82050
X153866Y-94242
X154882Y-90686
X155000Y-89000
X155136Y-103960
X155390Y-78494
X156000Y-82000
X156406Y-92718
X157422Y-89670
X157447Y-105860
X158000Y-126000
X158438Y-77460
X158438Y-78730
X158496Y-73660
X159000Y-100000
X159200Y-107704
X160000Y-111000
X161214Y-73650
X161646Y-70870
X163646Y-70870
X164000Y-85000
X164000Y-121000
X164201Y-87305
X164534Y-104910
X164534Y-117610
X165471Y-87130
X165646Y-70870
X166741Y-87130
X167646Y-70870
X168000Y-91000
X168011Y-87130
X168090Y-103894
X168090Y-105926
X169281Y-87305
X169649Y-70834
X170551Y-90178
X171646Y-70870
X172000Y-134000
X172154Y-118626
X172154Y-92718
X172662Y-86622
X173000Y-78000
X173228Y-112268
X173646Y-70870
X174186Y-86622
X175646Y-70870
X178816Y-92964
X179266Y-72380
X179266Y-73650
X179646Y-70870
X180282Y-90686
X180848Y-97028
X181000Y-81000
X181646Y-70870
X181806Y-76190
X182000Y-73000
X182314Y-74938
X183000Y-127000
X183330Y-88400
X183388Y-96520
X183646Y-70870
X185646Y-70870
X187646Y-70870
X189000Y-85000
X189646Y-70870
X189896Y-82050
X189896Y-90305
X189896Y-98560
X190000Y-96000
X191000Y-78000
X191000Y-110000
T3
X109756Y-108520
X109756Y-121220
X112296Y-108520
X112296Y-121220
X114836Y-108520
X114836Y-121220
X117376Y-108520
X117376Y-121220
X119916Y-108520
X119916Y-121220
X122456Y-108520
X122456Y-121220
X124996Y-108520
X124996Y-121220
X127536Y-108520
X127536Y-111060
X127536Y-113600
X127536Y-121220
X132256Y-108520
X132256Y-121220
X134796Y-108520
X134796Y-121220
X137336Y-108520
X137336Y-121220
X139876Y-108520
X139876Y-121220
X142416Y-108520
X142416Y-121220
X144956Y-108520
X144956Y-121220
X147496Y-108520
X147496Y-121220
X150036Y-108520
X150036Y-111060
X150036Y-113600
X150036Y-121220
X167059Y-94491
X167059Y-97031
X169599Y-94491
X169599Y-97031
X172139Y-94491
X172139Y-97031
X186371Y-104870
X186371Y-107410
X186371Y-112345
X186371Y-114885
X186371Y-117425
X186371Y-122345
X186371Y-124885
X186371Y-127425
X188911Y-104870
X188911Y-107410
X188911Y-112345
X188911Y-114885
X188911Y-117425
X188911Y-122345
X188911Y-124885
X188911Y-127425
T4
X112646Y-130370
X116456Y-130370
X120266Y-130370
X124076Y-130370
X132646Y-130370
X136456Y-130370
X140266Y-130370
X144076Y-130370
M30
