%TF.GenerationSoftware,KiCad,Pcbnew,8.0.2*%
%TF.CreationDate,2025-04-15T08:32:21+02:00*%
%TF.ProjectId,Mainboard,4d61696e-626f-4617-9264-2e6b69636164,v1.0*%
%TF.SameCoordinates,Original*%
%TF.FileFunction,Soldermask,Top*%
%TF.FilePolarity,Negative*%
%FSLAX46Y46*%
G04 Gerber Fmt 4.6, Leading zero omitted, Abs format (unit mm)*
G04 Created by KiCad (PCBNEW 8.0.2) date 2025-04-15 08:32:21*
%MOMM*%
%LPD*%
G01*
G04 APERTURE LIST*
G04 Aperture macros list*
%AMRoundRect*
0 Rectangle with rounded corners*
0 $1 Rounding radius*
0 $2 $3 $4 $5 $6 $7 $8 $9 X,Y pos of 4 corners*
0 Add a 4 corners polygon primitive as box body*
4,1,4,$2,$3,$4,$5,$6,$7,$8,$9,$2,$3,0*
0 Add four circle primitives for the rounded corners*
1,1,$1+$1,$2,$3*
1,1,$1+$1,$4,$5*
1,1,$1+$1,$6,$7*
1,1,$1+$1,$8,$9*
0 Add four rect primitives between the rounded corners*
20,1,$1+$1,$2,$3,$4,$5,0*
20,1,$1+$1,$4,$5,$6,$7,0*
20,1,$1+$1,$6,$7,$8,$9,0*
20,1,$1+$1,$8,$9,$2,$3,0*%
%AMFreePoly0*
4,1,19,0.550000,-0.750000,0.000000,-0.750000,0.000000,-0.744911,-0.071157,-0.744911,-0.207708,-0.704816,-0.327430,-0.627875,-0.420627,-0.520320,-0.479746,-0.390866,-0.500000,-0.250000,-0.500000,0.250000,-0.479746,0.390866,-0.420627,0.520320,-0.327430,0.627875,-0.207708,0.704816,-0.071157,0.744911,0.000000,0.744911,0.000000,0.750000,0.550000,0.750000,0.550000,-0.750000,0.550000,-0.750000,
$1*%
%AMFreePoly1*
4,1,19,0.000000,0.744911,0.071157,0.744911,0.207708,0.704816,0.327430,0.627875,0.420627,0.520320,0.479746,0.390866,0.500000,0.250000,0.500000,-0.250000,0.479746,-0.390866,0.420627,-0.520320,0.327430,-0.627875,0.207708,-0.704816,0.071157,-0.744911,0.000000,-0.744911,0.000000,-0.750000,-0.550000,-0.750000,-0.550000,0.750000,0.000000,0.750000,0.000000,0.744911,0.000000,0.744911,
$1*%
G04 Aperture macros list end*
%ADD10C,0.187500*%
%ADD11RoundRect,0.250000X-0.650000X-1.550000X0.650000X-1.550000X0.650000X1.550000X-0.650000X1.550000X0*%
%ADD12O,1.800000X3.600000*%
%ADD13R,1.300000X1.550000*%
%ADD14RoundRect,0.250000X0.250000X0.475000X-0.250000X0.475000X-0.250000X-0.475000X0.250000X-0.475000X0*%
%ADD15C,3.200000*%
%ADD16RoundRect,0.250000X-0.450000X0.262500X-0.450000X-0.262500X0.450000X-0.262500X0.450000X0.262500X0*%
%ADD17R,1.700000X1.700000*%
%ADD18O,1.700000X1.700000*%
%ADD19RoundRect,0.250000X-0.250000X-0.475000X0.250000X-0.475000X0.250000X0.475000X-0.250000X0.475000X0*%
%ADD20RoundRect,0.425000X1.575000X0.425000X-1.575000X0.425000X-1.575000X-0.425000X1.575000X-0.425000X0*%
%ADD21R,1.200000X3.300000*%
%ADD22R,1.500000X0.900000*%
%ADD23R,0.900000X1.500000*%
%ADD24R,1.000000X1.000000*%
%ADD25C,0.600000*%
%ADD26RoundRect,0.102000X0.754000X-0.754000X0.754000X0.754000X-0.754000X0.754000X-0.754000X-0.754000X0*%
%ADD27C,1.712000*%
%ADD28RoundRect,0.250000X0.475000X-0.250000X0.475000X0.250000X-0.475000X0.250000X-0.475000X-0.250000X0*%
%ADD29RoundRect,0.150000X-0.512500X-0.150000X0.512500X-0.150000X0.512500X0.150000X-0.512500X0.150000X0*%
%ADD30RoundRect,0.250000X-0.475000X0.250000X-0.475000X-0.250000X0.475000X-0.250000X0.475000X0.250000X0*%
%ADD31FreePoly0,180.000000*%
%ADD32R,1.000000X1.500000*%
%ADD33FreePoly1,180.000000*%
G04 APERTURE END LIST*
D10*
X160678572Y-133548149D02*
X161392858Y-133548149D01*
X160535715Y-133976720D02*
X161035715Y-132476720D01*
X161035715Y-132476720D02*
X161535715Y-133976720D01*
X162035714Y-133976720D02*
X162035714Y-132476720D01*
X162892857Y-133976720D02*
X162250000Y-133119577D01*
X162892857Y-132476720D02*
X162035714Y-133333863D01*
X163464286Y-133905292D02*
X163678572Y-133976720D01*
X163678572Y-133976720D02*
X164035714Y-133976720D01*
X164035714Y-133976720D02*
X164178572Y-133905292D01*
X164178572Y-133905292D02*
X164250000Y-133833863D01*
X164250000Y-133833863D02*
X164321429Y-133691006D01*
X164321429Y-133691006D02*
X164321429Y-133548149D01*
X164321429Y-133548149D02*
X164250000Y-133405292D01*
X164250000Y-133405292D02*
X164178572Y-133333863D01*
X164178572Y-133333863D02*
X164035714Y-133262434D01*
X164035714Y-133262434D02*
X163750000Y-133191006D01*
X163750000Y-133191006D02*
X163607143Y-133119577D01*
X163607143Y-133119577D02*
X163535714Y-133048149D01*
X163535714Y-133048149D02*
X163464286Y-132905292D01*
X163464286Y-132905292D02*
X163464286Y-132762434D01*
X163464286Y-132762434D02*
X163535714Y-132619577D01*
X163535714Y-132619577D02*
X163607143Y-132548149D01*
X163607143Y-132548149D02*
X163750000Y-132476720D01*
X163750000Y-132476720D02*
X164107143Y-132476720D01*
X164107143Y-132476720D02*
X164321429Y-132548149D01*
X160357143Y-135391636D02*
X160714286Y-136391636D01*
X160714286Y-136391636D02*
X161071429Y-135391636D01*
X162428572Y-136391636D02*
X161571429Y-136391636D01*
X162000000Y-136391636D02*
X162000000Y-134891636D01*
X162000000Y-134891636D02*
X161857143Y-135105922D01*
X161857143Y-135105922D02*
X161714286Y-135248779D01*
X161714286Y-135248779D02*
X161571429Y-135320208D01*
X163071428Y-136248779D02*
X163142857Y-136320208D01*
X163142857Y-136320208D02*
X163071428Y-136391636D01*
X163071428Y-136391636D02*
X163000000Y-136320208D01*
X163000000Y-136320208D02*
X163071428Y-136248779D01*
X163071428Y-136248779D02*
X163071428Y-136391636D01*
X164071429Y-134891636D02*
X164214286Y-134891636D01*
X164214286Y-134891636D02*
X164357143Y-134963065D01*
X164357143Y-134963065D02*
X164428572Y-135034493D01*
X164428572Y-135034493D02*
X164500000Y-135177350D01*
X164500000Y-135177350D02*
X164571429Y-135463065D01*
X164571429Y-135463065D02*
X164571429Y-135820208D01*
X164571429Y-135820208D02*
X164500000Y-136105922D01*
X164500000Y-136105922D02*
X164428572Y-136248779D01*
X164428572Y-136248779D02*
X164357143Y-136320208D01*
X164357143Y-136320208D02*
X164214286Y-136391636D01*
X164214286Y-136391636D02*
X164071429Y-136391636D01*
X164071429Y-136391636D02*
X163928572Y-136320208D01*
X163928572Y-136320208D02*
X163857143Y-136248779D01*
X163857143Y-136248779D02*
X163785714Y-136105922D01*
X163785714Y-136105922D02*
X163714286Y-135820208D01*
X163714286Y-135820208D02*
X163714286Y-135463065D01*
X163714286Y-135463065D02*
X163785714Y-135177350D01*
X163785714Y-135177350D02*
X163857143Y-135034493D01*
X163857143Y-135034493D02*
X163928572Y-134963065D01*
X163928572Y-134963065D02*
X164071429Y-134891636D01*
D11*
%TO.C,J1*%
X112646000Y-130370000D03*
D12*
X116456000Y-130370000D03*
X120266000Y-130370000D03*
X124076000Y-130370000D03*
%TD*%
D13*
%TO.C,SW1*%
X189896000Y-80895000D03*
X189896000Y-88845000D03*
X185396000Y-80895000D03*
X185396000Y-88845000D03*
%TD*%
D14*
%TO.C,C9*%
X127384000Y-124214000D03*
X125484000Y-124214000D03*
%TD*%
D15*
%TO.C,H2*%
X97646000Y-133620000D03*
%TD*%
D16*
%TO.C,R2*%
X132371000Y-82722500D03*
X132371000Y-84547500D03*
%TD*%
D14*
%TO.C,C1*%
X158372000Y-102116000D03*
X156472000Y-102116000D03*
%TD*%
D11*
%TO.C,J3*%
X132646000Y-130370000D03*
D12*
X136456000Y-130370000D03*
X140266000Y-130370000D03*
X144076000Y-130370000D03*
%TD*%
D17*
%TO.C,J2*%
X186371000Y-104870000D03*
D18*
X188911000Y-104870000D03*
X186371000Y-107410000D03*
X188911000Y-107410000D03*
%TD*%
D17*
%TO.C,J6*%
X186371000Y-112345000D03*
D18*
X188911000Y-112345000D03*
X186371000Y-114885000D03*
X188911000Y-114885000D03*
X186371000Y-117425000D03*
X188911000Y-117425000D03*
%TD*%
D19*
%TO.C,C2*%
X156472000Y-107704000D03*
X158372000Y-107704000D03*
%TD*%
D14*
%TO.C,C11*%
X150244000Y-124214000D03*
X148344000Y-124214000D03*
%TD*%
D15*
%TO.C,H3*%
X187646000Y-133620000D03*
%TD*%
D19*
%TO.C,C3*%
X165362000Y-105926000D03*
X167262000Y-105926000D03*
%TD*%
D14*
%TO.C,C8*%
X112144000Y-124722000D03*
X110244000Y-124722000D03*
%TD*%
D20*
%TO.C,U2*%
X106851000Y-69835000D03*
X106851000Y-72375000D03*
X106851000Y-74915000D03*
X106851000Y-77455000D03*
X106851000Y-79995000D03*
X106851000Y-82535000D03*
X106851000Y-85075000D03*
X106851000Y-87615000D03*
X106851000Y-90155000D03*
X106851000Y-92695000D03*
X128441000Y-69835000D03*
X128441000Y-72375000D03*
X128441000Y-74915000D03*
X128441000Y-77455000D03*
X128441000Y-79995000D03*
X128441000Y-82535000D03*
X128441000Y-85075000D03*
X128441000Y-87615000D03*
X128441000Y-90155000D03*
X128441000Y-92695000D03*
%TD*%
D21*
%TO.C,L1*%
X160444000Y-104910000D03*
X163544000Y-104910000D03*
%TD*%
D22*
%TO.C,U4*%
X159896000Y-71110000D03*
X159896000Y-72380000D03*
X159896000Y-73650000D03*
X159896000Y-74920000D03*
X159896000Y-76190000D03*
X159896000Y-77460000D03*
X159896000Y-78730000D03*
X159896000Y-80000000D03*
X159896000Y-81270000D03*
X159896000Y-82540000D03*
X159896000Y-83810000D03*
X159896000Y-85080000D03*
X159896000Y-86350000D03*
X159896000Y-87620000D03*
D23*
X161661000Y-88870000D03*
X162931000Y-88870000D03*
X164201000Y-88870000D03*
X165471000Y-88870000D03*
X166741000Y-88870000D03*
X168011000Y-88870000D03*
X169281000Y-88870000D03*
X170551000Y-88870000D03*
X171821000Y-88870000D03*
X173091000Y-88870000D03*
X174361000Y-88870000D03*
X175631000Y-88870000D03*
D22*
X177396000Y-87620000D03*
X177396000Y-86350000D03*
X177396000Y-85080000D03*
X177396000Y-83810000D03*
X177396000Y-82540000D03*
X177396000Y-81270000D03*
X177396000Y-80000000D03*
X177396000Y-78730000D03*
X177396000Y-77460000D03*
X177396000Y-76190000D03*
X177396000Y-74920000D03*
X177396000Y-73650000D03*
X177396000Y-72380000D03*
X177396000Y-71110000D03*
D24*
X165786000Y-74960000D03*
D25*
X165786000Y-75710000D03*
D24*
X165786000Y-76460000D03*
D25*
X165786000Y-77210000D03*
D24*
X165786000Y-77960000D03*
D25*
X166536000Y-74960000D03*
X166536000Y-76460000D03*
X166536000Y-77960000D03*
D24*
X167286000Y-74960000D03*
D25*
X167286000Y-75710000D03*
D24*
X167286000Y-76460000D03*
D25*
X167286000Y-77210000D03*
D24*
X167286000Y-77960000D03*
D25*
X168036000Y-74960000D03*
X168036000Y-76460000D03*
X168036000Y-77960000D03*
D24*
X168786000Y-74960000D03*
D25*
X168786000Y-75710000D03*
D24*
X168786000Y-76460000D03*
D25*
X168786000Y-77210000D03*
D24*
X168786000Y-77960000D03*
%TD*%
D26*
%TO.C,U3*%
X109756000Y-121220000D03*
D27*
X112296000Y-121220000D03*
X114836000Y-121220000D03*
X117376000Y-121220000D03*
X119916000Y-121220000D03*
X122456000Y-121220000D03*
X124996000Y-121220000D03*
X127536000Y-121220000D03*
X109756000Y-108520000D03*
X112296000Y-108520000D03*
X114836000Y-108520000D03*
X117376000Y-108520000D03*
X119916000Y-108520000D03*
X122456000Y-108520000D03*
X124996000Y-108520000D03*
X127536000Y-108520000D03*
X127536000Y-113600000D03*
X127536000Y-111060000D03*
%TD*%
D15*
%TO.C,H4*%
X187646000Y-74870000D03*
%TD*%
%TO.C,H1*%
X97646000Y-68620000D03*
%TD*%
D28*
%TO.C,C5*%
X153866000Y-72840000D03*
X153866000Y-70940000D03*
%TD*%
D26*
%TO.C,U5*%
X132256000Y-121220000D03*
D27*
X134796000Y-121220000D03*
X137336000Y-121220000D03*
X139876000Y-121220000D03*
X142416000Y-121220000D03*
X144956000Y-121220000D03*
X147496000Y-121220000D03*
X150036000Y-121220000D03*
X132256000Y-108520000D03*
X134796000Y-108520000D03*
X137336000Y-108520000D03*
X139876000Y-108520000D03*
X142416000Y-108520000D03*
X144956000Y-108520000D03*
X147496000Y-108520000D03*
X150036000Y-108520000D03*
X150036000Y-113600000D03*
X150036000Y-111060000D03*
%TD*%
D13*
%TO.C,SW2*%
X185396000Y-99845000D03*
X185396000Y-91895000D03*
X189896000Y-99845000D03*
X189896000Y-91895000D03*
%TD*%
D29*
%TO.C,U1*%
X156284500Y-103960000D03*
X156284500Y-104910000D03*
X156284500Y-105860000D03*
X158559500Y-105860000D03*
X158559500Y-104910000D03*
X158559500Y-103960000D03*
%TD*%
D16*
%TO.C,R3*%
X132371000Y-86532500D03*
X132371000Y-88357500D03*
%TD*%
D14*
%TO.C,C10*%
X134496000Y-124722000D03*
X132596000Y-124722000D03*
%TD*%
D16*
%TO.C,R1*%
X183330000Y-82153500D03*
X183330000Y-83978500D03*
%TD*%
D30*
%TO.C,C7*%
X183330000Y-85672000D03*
X183330000Y-87572000D03*
%TD*%
D31*
%TO.C,JP1*%
X182946000Y-121870000D03*
D32*
X181646000Y-121870000D03*
D33*
X180346000Y-121870000D03*
%TD*%
D17*
%TO.C,J5*%
X186371000Y-122345000D03*
D18*
X188911000Y-122345000D03*
X186371000Y-124885000D03*
X188911000Y-124885000D03*
X186371000Y-127425000D03*
X188911000Y-127425000D03*
%TD*%
D28*
%TO.C,C6*%
X156406000Y-72840000D03*
X156406000Y-70940000D03*
%TD*%
D19*
%TO.C,C4*%
X165362000Y-103894000D03*
X167262000Y-103894000D03*
%TD*%
D17*
%TO.C,J4*%
X172139000Y-94491000D03*
D18*
X172139000Y-97031000D03*
X169599000Y-94491000D03*
X169599000Y-97031000D03*
X167059000Y-94491000D03*
X167059000Y-97031000D03*
%TD*%
M02*
