M48
; DRILL file {KiCad 8.0.2} date 2024-05-15T16:38:58+0200
; FORMAT={-:-/ absolute / metric / decimal}
; #@! TF.CreationDate,2024-05-15T16:38:58+02:00
; #@! TF.GenerationSoftware,Kicad,Pcbnew,8.0.2
; #@! TF.FileFunction,MixedPlating,1,4
FMAT,2
METRIC
; #@! TA.AperFunction,Plated,PTH,ComponentDrill
T1C0.200
; #@! TA.AperFunction,Plated,PTH,ViaDrill
T2C0.400
; #@! TA.AperFunction,Plated,PTH,ComponentDrill
T3C0.600
; #@! TA.AperFunction,Plated,PTH,ComponentDrill
T4C0.650
; #@! TA.AperFunction,Plated,PTH,ComponentDrill
T5C1.000
; #@! TA.AperFunction,Plated,PTH,ComponentDrill
T6C1.100
; #@! TA.AperFunction,Plated,PTH,ComponentDrill
T7C1.400
; #@! TA.AperFunction,Plated,PTH,ComponentDrill
T8C2.100
; #@! TA.AperFunction,NonPlated,NPTH,ComponentDrill
T9C3.200
; #@! TA.AperFunction,NonPlated,NPTH,ComponentDrill
T10C3.500
%
G90
G05
T1
X135.608Y-56.546
X135.608Y-58.046
X136.358Y-55.796
X136.358Y-57.296
X136.358Y-58.796
X137.108Y-56.546
X137.108Y-58.046
X137.858Y-55.796
X137.858Y-57.296
X137.858Y-58.796
X138.608Y-56.546
X138.608Y-58.046
T2
X71.12Y-141.224
X71.628Y-133.096
X72.644Y-101.6
X73.152Y-66.04
X73.152Y-114.3
X73.568Y-136.86
X74.168Y-120.396
X75.184Y-76.708
X75.6Y-130.354
X75.65Y-133.341
X78.232Y-94.488
X78.74Y-115.824
X79.206Y-132.325
X79.756Y-55.372
X79.756Y-139.192
X79.756Y-146.812
X80.492Y-129.5
X80.492Y-131.37
X81.0Y-125.17
X83.032Y-125.236
X83.583Y-133.284
X83.82Y-61.468
X84.328Y-145.288
X85.064Y-125.236
X85.344Y-140.208
X88.137Y-133.203
X88.392Y-140.208
X89.366Y-134.865
X89.408Y-122.428
X89.916Y-136.652
X90.187Y-142.428
X91.414Y-131.878
X92.456Y-134.112
X93.98Y-66.548
X93.98Y-84.328
X94.251Y-129.22
X94.488Y-124.46
X96.012Y-148.844
X96.173Y-145.404
X96.549Y-137.752
X97.048Y-145.984
X97.536Y-76.708
X97.536Y-94.488
X97.536Y-148.844
X98.044Y-128.524
X98.098Y-145.984
X98.548Y-137.752
X98.552Y-132.588
X99.06Y-148.844
X99.839Y-145.476
X100.206Y-138.361
X100.584Y-148.844
X101.121Y-137.752
X102.108Y-119.38
X103.382Y-61.702
X104.648Y-94.488
X104.906Y-63.734
X105.156Y-145.796
X106.43Y-63.734
X107.446Y-85.07
X108.204Y-118.872
X108.204Y-136.144
X108.97Y-83.038
X108.97Y-101.834
X109.22Y-146.812
X109.986Y-83.038
X109.986Y-99.294
X110.041Y-109.001
X111.002Y-78.466
X111.337Y-75.289
X111.76Y-119.888
X112.018Y-76.434
X112.252Y-74.402
X112.526Y-73.386
X112.676Y-71.346
X113.034Y-72.37
X113.047Y-134.808
X113.284Y-55.88
X113.284Y-62.992
X113.357Y-70.442
X113.542Y-118.211
X115.316Y-148.336
X115.574Y-105.699
X116.597Y-109.924
X117.098Y-90.15
X117.47Y-105.835
X118.114Y-101.834
X119.38Y-91.948
X119.38Y-148.336
X119.638Y-108.946
X119.638Y-114.843
X119.888Y-99.06
X119.888Y-133.096
X120.788Y-61.194
X120.904Y-123.952
X122.178Y-60.178
X122.686Y-58.145
X122.936Y-87.884
X123.444Y-73.152
X123.444Y-96.52
X123.702Y-53.574
X123.843Y-51.616
X124.078Y-78.334
X124.21Y-79.482
X124.21Y-83.038
X124.21Y-82.022
X124.718Y-58.146
X124.968Y-148.336
X125.476Y-121.412
X125.734Y-134.854
X127.0Y-69.596
X127.508Y-115.824
X127.766Y-67.273
X127.766Y-68.323
X127.766Y-122.342
X128.789Y-126.567
X129.54Y-104.648
X129.798Y-122.342
X130.814Y-74.402
X131.064Y-142.24
X131.83Y-131.486
X132.08Y-58.928
X132.588Y-102.108
X132.588Y-128.016
X132.987Y-67.948
X133.096Y-54.864
X135.128Y-110.744
X136.016Y-74.016
X136.144Y-67.056
X136.652Y-53.34
X137.926Y-73.386
X138.434Y-83.546
X138.434Y-87.102
X138.942Y-74.402
X139.192Y-67.564
X140.466Y-62.21
X140.466Y-73.386
X141.224Y-125.984
X141.732Y-91.948
X141.732Y-145.288
X141.99Y-62.21
X142.24Y-119.38
X142.498Y-82.022
X142.639Y-67.948
X143.514Y-133.33
X143.764Y-136.652
X144.022Y-60.686
X144.163Y-67.948
X145.546Y-52.05
X145.687Y-55.39
X145.687Y-57.28
X145.687Y-67.948
X149.459Y-68.456
X150.626Y-58.146
X150.876Y-99.06
X151.384Y-141.224
X153.166Y-72.37
X153.416Y-106.172
X154.432Y-137.16
X156.464Y-129.54
X157.302Y-72.298
X159.004Y-107.696
X159.004Y-122.428
X162.56Y-73.66
X164.084Y-57.404
X165.358Y-55.606
X165.608Y-111.76
X167.64Y-83.312
X168.656Y-106.172
X168.656Y-135.128
X168.914Y-55.606
X169.164Y-128.524
X170.18Y-57.404
X170.688Y-113.792
X170.688Y-126.492
X172.47Y-55.606
X172.639Y-101.326
X172.639Y-106.406
X172.72Y-131.064
X172.72Y-138.684
X173.486Y-110.47
X173.486Y-123.678
X173.527Y-109.412
X176.026Y-55.606
X176.073Y-103.744
X176.195Y-91.674
X176.97Y-109.454
X177.002Y-110.503
X178.308Y-86.868
X178.816Y-107.696
X178.816Y-146.304
X179.009Y-93.706
X179.074Y-54.59
X179.131Y-102.454
X179.313Y-131.298
X179.324Y-122.428
X179.832Y-132.08
X180.09Y-149.078
X180.259Y-90.15
X181.275Y-117.074
X181.275Y-118.224
X184.323Y-90.15
X184.323Y-95.23
X184.831Y-118.09
X184.912Y-59.436
X185.42Y-101.092
X185.847Y-90.658
X185.928Y-74.676
X186.436Y-81.28
X186.694Y-140.95
X187.371Y-120.122
X187.96Y-105.664
X188.218Y-109.454
X188.218Y-110.47
X188.557Y-126.63
X189.992Y-81.28
X190.25Y-132.822
X191.008Y-107.188
X191.097Y-126.63
X192.006Y-138.353
X192.024Y-100.584
X192.282Y-118.09
X192.532Y-53.848
X193.975Y-89.642
X194.991Y-91.166
X195.265Y-117.009
X195.499Y-86.594
X195.758Y-100.564
X196.515Y-94.214
X197.023Y-110.47
X197.023Y-111.486
X197.87Y-89.642
X198.12Y-74.676
X198.628Y-122.936
X199.644Y-59.944
X199.644Y-113.284
X199.644Y-128.524
X199.902Y-118.867
X200.152Y-66.548
X201.168Y-103.124
X201.168Y-124.968
X201.898Y-118.867
X201.934Y-89.642
X202.184Y-143.256
X202.442Y-133.33
X203.458Y-55.759
X203.966Y-138.41
X204.216Y-128.016
X205.095Y-106.284
X205.49Y-78.974
X205.725Y-107.422
X206.248Y-72.136
X206.506Y-77.45
X207.014Y-55.759
X207.522Y-75.926
X208.03Y-132.822
X208.538Y-74.91
X209.296Y-58.42
X209.296Y-142.748
X209.495Y-73.386
X209.804Y-67.056
X210.57Y-55.759
X210.57Y-72.37
X212.344Y-94.488
X212.344Y-120.904
X214.126Y-55.759
X215.392Y-118.364
X215.392Y-135.128
X216.916Y-86.868
X217.424Y-79.756
X217.424Y-121.412
X217.424Y-147.828
X217.932Y-60.96
X217.932Y-113.792
X219.964Y-140.208
X221.488Y-89.408
X226.568Y-139.7
X227.076Y-86.868
T4
X152.658Y-52.558
X152.658Y-53.828
X153.928Y-52.558
X153.928Y-53.828
X155.198Y-52.558
X155.198Y-53.828
X156.468Y-52.558
X156.468Y-53.828
X157.738Y-52.558
X157.738Y-53.828
X193.975Y-80.361
X193.975Y-81.631
X195.245Y-80.361
X195.245Y-81.631
X196.515Y-80.361
X196.515Y-81.631
X197.785Y-80.361
X197.785Y-81.631
X199.055Y-80.361
X199.055Y-81.631
T5
X90.174Y-72.37
X90.174Y-74.91
X90.174Y-77.45
X90.174Y-79.99
X90.174Y-82.53
X90.174Y-85.07
X90.174Y-87.61
X90.174Y-90.15
X90.174Y-99.294
X90.174Y-101.834
X90.174Y-104.374
X90.174Y-106.914
X90.174Y-109.454
X90.174Y-111.994
X90.174Y-114.534
X90.174Y-117.074
X90.682Y-54.345
X90.682Y-56.885
X93.222Y-54.345
X93.222Y-56.885
X95.762Y-54.345
X95.762Y-56.885
X97.794Y-90.15
X97.794Y-117.074
X98.302Y-54.345
X98.302Y-56.885
X100.334Y-90.15
X100.334Y-117.074
X100.842Y-54.345
X100.842Y-56.885
X102.874Y-72.37
X102.874Y-74.91
X102.874Y-77.45
X102.874Y-79.99
X102.874Y-82.53
X102.874Y-85.07
X102.874Y-87.61
X102.874Y-90.15
X102.874Y-99.294
X102.874Y-101.834
X102.874Y-104.374
X102.874Y-106.914
X102.874Y-109.454
X102.874Y-111.994
X102.874Y-114.534
X102.874Y-117.074
X159.262Y-144.242
X159.262Y-146.782
X161.802Y-144.242
X161.802Y-146.782
X164.342Y-144.242
X164.342Y-146.782
X166.882Y-144.242
X166.882Y-146.782
X169.422Y-144.242
X169.422Y-146.782
X189.234Y-149.078
X191.774Y-149.078
X194.314Y-149.078
X196.854Y-149.078
X199.394Y-149.078
X222.762Y-121.138
X222.762Y-123.678
X222.762Y-126.218
X222.762Y-128.758
X222.762Y-131.298
X223.006Y-67.29
X223.006Y-69.83
X223.006Y-72.37
X223.006Y-74.91
X223.006Y-77.45
X225.302Y-121.138
X225.302Y-123.678
X225.302Y-126.218
X225.302Y-128.758
X225.302Y-131.298
X225.546Y-67.29
X225.546Y-69.83
X225.546Y-72.37
X225.546Y-74.91
X225.546Y-77.45
T6
X102.953Y-128.966
X105.493Y-128.966
X108.033Y-128.966
X113.621Y-128.966
X116.161Y-128.966
X118.701Y-128.966
T7
X79.173Y-96.788
X79.173Y-104.408
X79.173Y-112.028
X79.173Y-119.648
X79.206Y-65.292
X79.206Y-72.912
X79.206Y-80.532
X79.206Y-88.152
X111.51Y-140.696
X119.13Y-140.696
X126.75Y-140.696
X134.37Y-140.696
T8
X128.83Y-79.99
X134.83Y-79.99
T9
X74.108Y-55.796
X74.108Y-145.796
X224.108Y-55.796
X224.108Y-145.796
T10
X128.83Y-97.99
X134.83Y-97.99
T3
G00X93.753Y-143.469
M15
G01X93.753Y-144.569
M16
G05
G00X93.753Y-147.799
M15
G01X93.753Y-148.599
M16
G05
G00X102.393Y-143.469
M15
G01X102.393Y-144.569
M16
G05
G00X102.393Y-147.799
M15
G01X102.393Y-148.599
M16
G05
M30
